# This file uses centimeters as units for non-parametric coordinates.

mtllib LightFicture2.mtl
g default
v 0.095106 0.032071 -0.030902
v 0.080902 0.032071 -0.058779
v 0.058779 0.032071 -0.080902
v 0.030902 0.032071 -0.095106
v 0.000000 0.032071 -0.100000
v -0.030902 0.032071 -0.095106
v -0.058779 0.032071 -0.080902
v -0.080902 0.032071 -0.058779
v -0.095106 0.032071 -0.030902
v -0.100000 0.032071 0.000000
v -0.095106 0.032071 0.030902
v -0.080902 0.032071 0.058779
v -0.058779 0.032071 0.080902
v -0.030902 0.032071 0.095106
v -0.000000 0.032071 0.100000
v 0.030902 0.032071 0.095106
v 0.058779 0.032071 0.080902
v 0.080902 0.032071 0.058779
v 0.095106 0.032071 0.030902
v 0.100000 0.032071 0.000000
v 0.056497 3.032071 -0.018357
v 0.048060 3.032071 -0.034917
v 0.034917 3.032071 -0.048060
v 0.018357 3.032071 -0.056497
v -0.000000 3.032071 -0.059405
v -0.018357 3.032071 -0.056497
v -0.034917 3.032071 -0.048060
v -0.048060 3.032071 -0.034917
v -0.056497 3.032071 -0.018357
v -0.059405 3.032071 -0.000000
v -0.056497 3.032071 0.018357
v -0.048060 3.032071 0.034917
v -0.034917 3.032071 0.048060
v -0.018357 3.032071 0.056497
v -0.000000 3.032071 0.059405
v 0.018357 3.032071 0.056497
v 0.034917 3.032071 0.048060
v 0.048060 3.032071 0.034917
v 0.056497 3.032071 0.018357
v 0.059405 3.032071 -0.000000
v -0.000000 3.032071 -0.000000
v 0.474677 -0.416000 -0.154232
v 0.403784 -0.416000 -0.293366
v 0.293366 -0.416000 -0.403784
v 0.154232 -0.416000 -0.474676
v 0.000000 -0.416000 -0.499103
v -0.154232 -0.416000 -0.474676
v -0.293366 -0.416000 -0.403784
v -0.403784 -0.416000 -0.293366
v -0.474676 -0.416000 -0.154232
v -0.499103 -0.416000 0.000000
v -0.474676 -0.416000 0.154232
v -0.403784 -0.416000 0.293366
v -0.293366 -0.416000 0.403784
v -0.154231 -0.416000 0.474677
v 0.000000 -0.416000 0.499103
v 0.154232 -0.416000 0.474676
v 0.293366 -0.416000 0.403784
v 0.403784 -0.416000 0.293366
v 0.474676 -0.416000 0.154232
v 0.499103 -0.416000 0.000000
v 0.165338 -0.237100 -0.053722
v 0.140645 -0.237100 -0.102184
v 0.000000 -0.237100 0.000000
v 0.102184 -0.237100 -0.140645
v 0.053721 -0.237100 -0.165338
v 0.000000 -0.237100 -0.173846
v -0.053722 -0.237100 -0.165338
v -0.102184 -0.237100 -0.140645
v -0.140645 -0.237100 -0.102184
v -0.165338 -0.237100 -0.053722
v -0.173846 -0.237100 0.000000
v -0.165338 -0.237100 0.053721
v -0.140645 -0.237100 0.102184
v -0.102184 -0.237100 0.140645
v -0.053721 -0.237100 0.165338
v 0.000000 -0.237100 0.173846
v 0.053721 -0.237100 0.165338
v 0.102184 -0.237100 0.140645
v 0.140645 -0.237100 0.102184
v 0.165338 -0.237100 0.053721
v 0.173846 -0.237100 0.000000
v 0.058779 0.033512 -0.080902
v 0.080902 0.033512 -0.058779
v 0.095106 0.033512 -0.030902
v 0.100000 0.033512 0.000000
v 0.095106 0.033512 0.030902
v 0.080902 0.033512 0.058779
v 0.058779 0.033512 0.080902
v 0.030902 0.033512 0.095106
v -0.000000 0.033512 0.100000
v -0.030902 0.033512 0.095106
v -0.058779 0.033512 0.080902
v -0.080902 0.033512 0.058779
v -0.095106 0.033512 0.030902
v -0.100000 0.033512 0.000000
v -0.095106 0.033512 -0.030902
v -0.080902 0.033512 -0.058779
v -0.058779 0.033512 -0.080902
v -0.030902 0.033512 -0.095106
v 0.000000 0.033512 -0.100000
v 0.030902 0.033512 -0.095106
v 0.058779 0.034367 -0.080902
v 0.080902 0.034367 -0.058779
v 0.095106 0.034367 -0.030902
v 0.100000 0.034367 0.000000
v 0.095106 0.034367 0.030902
v 0.080902 0.034367 0.058779
v 0.058779 0.034367 0.080902
v 0.030902 0.034367 0.095106
v -0.000000 0.034367 0.100000
v -0.030902 0.034367 0.095106
v -0.058779 0.034367 0.080902
v -0.080902 0.034367 0.058779
v -0.095106 0.034367 0.030902
v -0.100000 0.034367 0.000000
v -0.095106 0.034367 -0.030902
v -0.080902 0.034367 -0.058779
v -0.058779 0.034367 -0.080902
v -0.030902 0.034367 -0.095106
v 0.000000 0.034367 -0.100000
v 0.030902 0.034367 -0.095106
vt 0.098743 0.102021
vt 0.104966 0.102021
vt 0.104966 0.102343
vt 0.098743 0.102343
vt 0.126275 0.001992
vt 0.157336 0.001992
vt 0.109905 0.102021
vt 0.109905 0.102343
vt 0.104966 0.102534
vt 0.098743 0.102534
vt 0.091844 0.102021
vt 0.091844 0.102343
vt 0.091844 0.001992
vt 0.181986 0.001992
vt 0.109905 0.102534
vt 0.099639 0.771755
vt 0.095942 0.771755
vt 0.091844 0.102534
vt 0.084945 0.102021
vt 0.084945 0.102343
vt 0.057413 0.001992
vt 0.102573 0.771755
vt 0.091844 0.771755
vt 0.084945 0.102534
vt 0.078722 0.102021
vt 0.078722 0.102343
vt 0.026352 0.001992
vt 0.087746 0.771755
vt 0.078722 0.102534
vt 0.073783 0.102021
vt 0.073783 0.102343
vt 0.001702 0.001992
vt 0.084049 0.771755
vt 0.073783 0.102534
vt 0.081115 0.771755
vt 0.401865 0.102021
vt 0.408089 0.102021
vt 0.408089 0.102343
vt 0.401865 0.102343
vt 0.349495 0.001992
vt 0.380556 0.001992
vt 0.414987 0.102021
vt 0.414987 0.102343
vt 0.408089 0.102534
vt 0.401865 0.102534
vt 0.396926 0.102021
vt 0.396926 0.102343
vt 0.324845 0.001992
vt 0.414987 0.001992
vt 0.421886 0.102021
vt 0.421886 0.102343
vt 0.414987 0.102534
vt 0.410889 0.771755
vt 0.407192 0.771755
vt 0.396926 0.102534
vt 0.449418 0.001992
vt 0.428109 0.102021
vt 0.428109 0.102343
vt 0.421886 0.102534
vt 0.414987 0.771755
vt 0.404258 0.771755
vt 0.480479 0.001992
vt 0.433048 0.102021
vt 0.433048 0.102343
vt 0.428109 0.102534
vt 0.419085 0.771755
vt 0.505130 0.001992
vt 0.433048 0.102534
vt 0.422782 0.771755
vt 0.425716 0.771755
vt 0.772491 0.863774
vt 0.778004 0.874593
vt 0.741093 0.886586
vt 0.831236 0.821094
vt 0.847062 0.852155
vt 0.779903 0.886586
vt 0.763905 0.855188
vt 0.852515 0.886586
vt 0.806585 0.796444
vt 0.778004 0.898579
vt 0.753086 0.849675
vt 0.847062 0.921017
vt 0.775524 0.780617
vt 0.772491 0.909398
vt 0.741093 0.847776
vt 0.831236 0.952078
vt 0.741093 0.775164
vt 0.763905 0.917984
vt 0.729100 0.849675
vt 0.806585 0.976728
vt 0.706662 0.780617
vt 0.753086 0.923497
vt 0.718281 0.855188
vt 0.775524 0.992555
vt 0.675601 0.796444
vt 0.741093 0.925396
vt 0.709695 0.863774
vt 0.741093 0.998008
vt 0.650951 0.821094
vt 0.729100 0.923497
vt 0.704182 0.874593
vt 0.706662 0.992555
vt 0.635125 0.852155
vt 0.718281 0.917984
vt 0.702283 0.886586
vt 0.675601 0.976728
vt 0.629671 0.886586
vt 0.709695 0.909398
vt 0.704182 0.898579
vt 0.650951 0.952078
vt 0.635125 0.921017
vt 0.623781 0.792524
vt 0.621898 0.796221
vt 0.611169 0.788426
vt 0.618964 0.799155
vt 0.624430 0.788426
vt 0.615267 0.801039
vt 0.623781 0.784328
vt 0.611169 0.801688
vt 0.621898 0.780631
vt 0.607070 0.801039
vt 0.618964 0.777697
vt 0.603373 0.799155
vt 0.615267 0.775813
vt 0.600439 0.796221
vt 0.611169 0.775164
vt 0.598556 0.792524
vt 0.607070 0.775813
vt 0.597907 0.788426
vt 0.603373 0.777697
vt 0.598556 0.784328
vt 0.600439 0.780631
vt 0.266943 0.671725
vt 0.260720 0.671725
vt 0.260720 0.671403
vt 0.266943 0.671403
vt 0.319313 0.771754
vt 0.288252 0.771754
vt 0.253821 0.671725
vt 0.253821 0.671403
vt 0.260720 0.671212
vt 0.266943 0.671212
vt 0.253821 0.771754
vt 0.246922 0.671725
vt 0.246922 0.671403
vt 0.253821 0.671212
vt 0.257919 0.001992
vt 0.261616 0.001992
vt 0.219390 0.771754
vt 0.240699 0.671725
vt 0.240699 0.671403
vt 0.246922 0.671212
vt 0.253821 0.001992
vt 0.188329 0.771754
vt 0.240699 0.671212
vt 0.249723 0.001992
vt 0.246026 0.001992
vt 0.563676 0.102021
vt 0.569899 0.102021
vt 0.569899 0.102343
vt 0.563676 0.102343
vt 0.511305 0.001992
vt 0.542366 0.001992
vt 0.576798 0.102021
vt 0.576798 0.102343
vt 0.569899 0.102534
vt 0.563676 0.102534
vt 0.576798 0.001992
vt 0.583696 0.102021
vt 0.583696 0.102343
vt 0.576798 0.102534
vt 0.572700 0.771755
vt 0.569003 0.771755
vt 0.611229 0.001992
vt 0.589920 0.102021
vt 0.589920 0.102343
vt 0.583696 0.102534
vt 0.576798 0.771755
vt 0.642290 0.001992
vt 0.589920 0.102534
vt 0.580896 0.771755
vt 0.584593 0.771755
vn 0.710500 0.664753 -0.230853
vn 0.604387 0.664752 -0.439114
vn 0.809021 0.000001 -0.587780
vn 0.951056 0.000003 -0.309017
vn 0.439113 0.664752 -0.604388
vn 0.587785 0.000001 -0.809017
vn 0.230854 0.664752 -0.710501
vn 0.309016 0.000002 -0.951057
vn -0.000000 0.664752 -0.747065
vn -0.000001 0.000003 -1.000000
vn -0.230855 0.664752 -0.710501
vn -0.309027 0.000003 -0.951053
vn -0.439113 0.664752 -0.604388
vn -0.587788 0.000001 -0.809015
vn -0.604388 0.664752 -0.439113
vn -0.809009 0.000002 -0.587797
vn -0.710501 0.664752 -0.230854
vn -0.951056 0.000004 -0.309020
vn -0.747065 0.664752 -0.000000
vn -1.000000 0.000004 0.000000
vn -0.710501 0.664752 0.230855
vn -0.951055 0.000003 0.309020
vn -0.604388 0.664752 0.439113
vn -0.809021 0.000001 0.587780
vn -0.439114 0.664752 0.604387
vn -0.587785 0.000001 0.809017
vn -0.230854 0.664753 0.710500
vn -0.309016 0.000002 0.951057
vn 0.000002 0.664752 0.747064
vn 0.000001 0.000003 1.000000
vn 0.230854 0.664752 0.710501
vn 0.309020 0.000002 0.951056
vn 0.439113 0.664752 0.604388
vn 0.587788 0.000000 0.809015
vn 0.604388 0.664752 0.439113
vn 0.809021 0.000002 0.587780
vn 0.710501 0.664752 0.230854
vn 0.951056 0.000004 0.309020
vn 0.747064 0.664752 0.000003
vn 1.000000 0.000004 0.000003
vn 0.000000 -1.000000 -0.000003
vn 0.000000 -1.000000 -0.000002
vn 0.000000 -1.000000 -0.000000
vn 0.000000 -1.000000 -0.000002
vn 0.000000 -1.000000 0.000000
vn 0.000000 -1.000000 0.000000
vn 0.000000 -1.000000 0.000000
vn 0.000000 -1.000000 0.000002
vn 0.000000 -1.000000 0.000002
vn 0.000000 -1.000000 0.000003
vn 0.000000 -1.000000 0.000000
vn 0.000000 -1.000000 -0.000002
vn 0.000000 -1.000000 0.000000
vn 0.000000 -1.000000 -0.000001
vn 0.000000 -1.000000 0.000001
vn 0.000000 -1.000000 -0.000000
vn 0.000000 -1.000000 -0.000002
vn 0.000000 -1.000000 -0.000000
vn 0.000000 -1.000000 0.000002
vn 0.000000 -1.000000 0.000000
vn 0.000000 -1.000000 0.000000
vn 0.000000 1.000000 0.000000
vn 0.000000 1.000000 -0.000007
vn 0.000000 1.000000 0.000000
vn 0.000000 1.000000 -0.000007
vn 0.000000 1.000000 0.000000
vn 0.000000 1.000000 0.000000
vn 0.000000 1.000000 0.000000
vn 0.000000 1.000000 0.000000
vn 0.000000 1.000000 -0.000007
vn 0.000000 1.000000 -0.000007
vn 0.000000 1.000000 0.000000
vn 0.000000 1.000000 0.000007
vn 0.000000 1.000000 0.000007
vn 0.000000 1.000000 0.000000
vn 0.000000 1.000000 0.000000
vn 0.000000 1.000000 0.000001
vn 0.000000 1.000000 0.000002
vn 0.000000 1.000000 0.000002
vn 0.000000 1.000000 0.000000
vn 0.000000 1.000000 0.000007
vn 0.000000 1.000000 0.000007
vn 0.710184 0.665126 -0.230751
vn 0.604118 0.665125 -0.438919
vn 0.438917 0.665125 -0.604119
vn 0.230752 0.665125 -0.710185
vn -0.000000 0.665125 -0.746732
vn -0.230752 0.665125 -0.710185
vn -0.438918 0.665125 -0.604119
vn -0.604119 0.665125 -0.438918
vn -0.710185 0.665125 -0.230752
vn -0.746732 0.665125 0.000000
vn -0.710185 0.665125 0.230752
vn -0.604119 0.665125 0.438918
vn -0.438919 0.665125 0.604118
vn -0.230752 0.665126 0.710184
vn 0.000002 0.665125 0.746732
vn 0.230752 0.665125 0.710185
vn 0.438918 0.665125 0.604119
vn 0.604119 0.665125 0.438918
vn 0.710185 0.665125 0.230752
vn 0.746732 0.665125 0.000003
vn -0.433498 -0.873665 0.220881
vn -0.433498 -0.873665 0.220881
vn -0.433498 -0.873665 0.220881
vn -0.433499 -0.873665 0.220881
vn -0.344027 -0.873665 0.344027
vn -0.344027 -0.873665 0.344027
vn -0.344027 -0.873665 0.344027
vn -0.344027 -0.873665 0.344027
vn -0.220878 -0.873665 0.433500
vn -0.220878 -0.873665 0.433500
vn -0.220878 -0.873665 0.433500
vn -0.220878 -0.873665 0.433500
vn -0.076108 -0.873665 0.480538
vn -0.076108 -0.873665 0.480538
vn -0.076108 -0.873665 0.480538
vn -0.076108 -0.873665 0.480538
vn 0.076108 -0.873665 0.480539
vn 0.076108 -0.873665 0.480539
vn 0.076108 -0.873665 0.480539
vn 0.076108 -0.873665 0.480539
vn 0.220879 -0.873665 0.433500
vn 0.220879 -0.873665 0.433500
vn 0.220879 -0.873665 0.433500
vn 0.220879 -0.873665 0.433500
vn 0.344027 -0.873665 0.344028
vn 0.344027 -0.873665 0.344028
vn 0.344027 -0.873665 0.344028
vn 0.344027 -0.873665 0.344028
vn 0.433500 -0.873665 0.220878
vn 0.433500 -0.873665 0.220878
vn 0.433500 -0.873665 0.220878
vn 0.433500 -0.873665 0.220878
vn 0.480538 -0.873665 0.076107
vn 0.480538 -0.873665 0.076107
vn 0.480538 -0.873665 0.076107
vn 0.480538 -0.873665 0.076107
vn 0.480538 -0.873665 -0.076108
vn 0.480538 -0.873665 -0.076108
vn 0.480538 -0.873665 -0.076108
vn 0.480538 -0.873665 -0.076108
vn 0.433500 -0.873665 -0.220878
vn 0.433500 -0.873665 -0.220878
vn 0.433500 -0.873665 -0.220878
vn 0.433500 -0.873665 -0.220878
vn 0.344027 -0.873665 -0.344027
vn 0.344027 -0.873665 -0.344027
vn 0.344027 -0.873665 -0.344027
vn 0.344027 -0.873665 -0.344027
vn 0.220881 -0.873665 -0.433498
vn 0.220881 -0.873665 -0.433498
vn 0.220881 -0.873665 -0.433498
vn 0.220881 -0.873665 -0.433498
vn 0.076105 -0.873665 -0.480539
vn 0.076105 -0.873665 -0.480539
vn 0.076105 -0.873665 -0.480539
vn 0.076105 -0.873665 -0.480539
vn -0.076108 -0.873665 -0.480538
vn -0.076108 -0.873665 -0.480538
vn -0.076108 -0.873665 -0.480538
vn -0.076108 -0.873665 -0.480538
vn -0.220879 -0.873665 -0.433500
vn -0.220879 -0.873665 -0.433500
vn -0.220879 -0.873665 -0.433500
vn -0.220879 -0.873665 -0.433500
vn -0.344027 -0.873665 -0.344028
vn -0.344027 -0.873665 -0.344028
vn -0.344027 -0.873665 -0.344028
vn -0.344027 -0.873665 -0.344028
vn -0.433500 -0.873665 -0.220878
vn -0.433500 -0.873665 -0.220878
vn -0.433500 -0.873665 -0.220878
vn -0.433500 -0.873665 -0.220878
vn -0.480538 -0.873665 -0.076108
vn -0.480538 -0.873665 -0.076108
vn -0.480538 -0.873665 -0.076108
vn -0.480538 -0.873665 -0.076108
vn -0.480539 -0.873665 0.076103
vn -0.480539 -0.873665 0.076103
vn -0.480539 -0.873665 0.076103
vn -0.480539 -0.873665 0.076103
vn 0.587731 0.013536 -0.808943
vn 0.808943 0.013536 -0.587731
vn 0.950970 0.013536 -0.308988
vn 0.999908 0.013536 0.000001
vn 0.950969 0.013536 0.308989
vn 0.808943 0.013536 0.587731
vn 0.587731 0.013536 0.808943
vn 0.308989 0.013536 0.950969
vn 0.000000 0.013536 0.999908
vn -0.308989 0.013536 0.950969
vn -0.587731 0.013536 0.808943
vn -0.808943 0.013536 0.587731
vn -0.950969 0.013536 0.308989
vn -0.999908 0.013536 -0.000000
vn -0.950970 0.013536 -0.308989
vn -0.808943 0.013536 -0.587731
vn -0.587732 0.013536 -0.808943
vn -0.308989 0.013536 -0.950969
vn 0.000000 0.013536 -0.999908
vn 0.308988 0.013536 -0.950970
vn 0.587731 0.013541 -0.808943
vn 0.808943 0.013541 -0.587731
vn 0.950970 0.013541 -0.308988
vn 0.999908 0.013541 0.000001
vn 0.950969 0.013541 0.308989
vn 0.808943 0.013541 0.587731
vn 0.587731 0.013541 0.808943
vn 0.308989 0.013541 0.950969
vn 0.000000 0.013541 0.999908
vn -0.308989 0.013541 0.950969
vn -0.587731 0.013541 0.808943
vn -0.808943 0.013541 0.587731
vn -0.950969 0.013541 0.308989
vn -0.999908 0.013541 -0.000000
vn -0.950969 0.013541 -0.308989
vn -0.808943 0.013541 -0.587731
vn -0.587732 0.013541 -0.808943
vn -0.308989 0.013541 -0.950969
vn 0.000000 0.013541 -0.999908
vn 0.308988 0.013541 -0.950970
s 1
g pCylinder1
usemtl initialShadingGroup
f 1/1/1 2/2/2 84/3/3 85/4/4
f 2/2/2 3/7/5 83/8/6 84/3/3
f 3/133/5 4/134/7 102/135/8 83/136/6
f 4/134/7 5/139/9 101/140/10 102/135/8
f 5/139/9 6/144/11 100/145/12 101/140/10
f 6/144/11 7/150/13 99/151/14 100/145/12
f 7/46/13 8/36/15 98/39/16 99/47/14
f 8/36/15 9/37/17 97/38/18 98/39/16
f 9/37/17 10/42/19 96/43/20 97/38/18
f 10/42/19 11/50/21 95/51/22 96/43/20
f 11/50/21 12/57/23 94/58/24 95/51/22
f 12/57/23 13/63/25 93/64/26 94/58/24
f 13/158/25 14/159/27 92/160/28 93/161/26
f 14/159/27 15/164/29 91/165/30 92/160/28
f 15/164/29 16/169/31 90/170/32 91/165/30
f 16/169/31 17/175/33 89/176/34 90/170/32
f 17/30/33 18/25/35 88/26/36 89/31/34
f 18/25/35 19/19/37 87/20/38 88/26/36
f 19/19/37 20/11/39 86/12/40 87/20/38
f 20/11/39 1/1/1 85/4/4 86/12/40
s 2
f 63/71/41 62/72/42 64/73/43
f 65/77/44 63/71/41 64/73/43
f 66/81/45 65/77/44 64/73/43
f 67/85/46 66/81/45 64/73/43
f 68/89/47 67/85/46 64/73/43
f 69/93/48 68/89/47 64/73/43
f 70/97/49 69/93/48 64/73/43
f 71/101/50 70/97/49 64/73/43
f 72/105/51 71/101/50 64/73/43
f 73/109/52 72/105/51 64/73/43
f 74/108/53 73/109/52 64/73/43
f 75/104/54 74/108/53 64/73/43
f 76/100/55 75/104/54 64/73/43
f 77/96/56 76/100/55 64/73/43
f 78/92/57 77/96/56 64/73/43
f 79/88/58 78/92/57 64/73/43
f 80/84/59 79/88/58 64/73/43
f 81/80/60 80/84/59 64/73/43
f 82/76/61 81/80/60 64/73/43
f 62/72/42 82/76/61 64/73/43
s 3
f 21/112/62 22/113/63 41/114/64
f 22/113/63 23/115/65 41/114/64
f 23/115/65 24/117/66 41/114/64
f 24/117/66 25/119/67 41/114/64
f 25/119/67 26/121/68 41/114/64
f 26/121/68 27/123/69 41/114/64
f 27/123/69 28/125/70 41/114/64
f 28/125/70 29/127/71 41/114/64
f 29/127/71 30/129/72 41/114/64
f 30/129/72 31/131/73 41/114/64
f 31/131/73 32/132/74 41/114/64
f 32/132/74 33/130/75 41/114/64
f 33/130/75 34/128/76 41/114/64
f 34/128/76 35/126/77 41/114/64
f 35/126/77 36/124/78 41/114/64
f 36/124/78 37/122/79 41/114/64
f 37/122/79 38/120/80 41/114/64
f 38/120/80 39/118/81 41/114/64
f 39/118/81 40/116/82 41/114/64
f 40/116/82 21/112/62 41/114/64
s 1
f 2/2/2 1/1/1 42/5/83 43/6/84
f 3/7/5 2/2/2 43/6/84 44/14/85
f 4/134/7 3/133/5 44/137/85 45/138/86
f 5/139/9 4/134/7 45/138/86 46/143/87
f 6/144/11 5/139/9 46/143/87 47/149/88
f 7/150/13 6/144/11 47/149/88 48/154/89
f 8/36/15 7/46/13 48/48/89 49/40/90
f 9/37/17 8/36/15 49/40/90 50/41/91
f 10/42/19 9/37/17 50/41/91 51/49/92
f 11/50/21 10/42/19 51/49/92 52/56/93
f 12/57/23 11/50/21 52/56/93 53/62/94
f 13/63/25 12/57/23 53/62/94 54/67/95
f 14/159/27 13/158/25 54/162/95 55/163/96
f 15/164/29 14/159/27 55/163/96 56/168/97
f 16/169/31 15/164/29 56/168/97 57/174/98
f 17/175/33 16/169/31 57/174/98 58/179/99
f 18/25/35 17/30/33 58/32/99 59/27/100
f 19/19/37 18/25/35 59/27/100 60/21/101
f 20/11/39 19/19/37 60/21/101 61/13/102
f 1/1/1 20/11/39 61/13/102 42/5/83
s off
f 43/74/103 42/75/104 62/72/105 63/71/106
f 44/79/107 43/74/108 63/71/109 65/77/110
f 45/83/111 44/79/112 65/77/113 66/81/114
f 46/87/115 45/83/116 66/81/117 67/85/118
f 47/91/119 46/87/120 67/85/121 68/89/122
f 48/95/123 47/91/124 68/89/125 69/93/126
f 49/99/127 48/95/128 69/93/129 70/97/130
f 50/103/131 49/99/132 70/97/133 71/101/134
f 51/107/135 50/103/136 71/101/137 72/105/138
f 52/111/139 51/107/140 72/105/141 73/109/142
f 53/110/143 52/111/144 73/109/145 74/108/146
f 54/106/147 53/110/148 74/108/149 75/104/150
f 55/102/151 54/106/152 75/104/153 76/100/154
f 56/98/155 55/102/156 76/100/157 77/96/158
f 57/94/159 56/98/160 77/96/161 78/92/162
f 58/90/163 57/94/164 78/92/165 79/88/166
f 59/86/167 58/90/168 79/88/169 80/84/170
f 60/82/171 59/86/172 80/84/173 81/80/174
f 61/78/175 60/82/176 81/80/177 82/76/178
f 42/75/179 61/78/180 82/76/181 62/72/182
s 1
f 84/3/3 83/8/6 103/15/183 104/9/184
f 85/4/4 84/3/3 104/9/184 105/10/185
f 86/12/40 85/4/4 105/10/185 106/18/186
f 87/20/38 86/12/40 106/18/186 107/24/187
f 88/26/36 87/20/38 107/24/187 108/29/188
f 89/31/34 88/26/36 108/29/188 109/34/189
f 90/170/32 89/176/34 109/180/189 110/177/190
f 91/165/30 90/170/32 110/177/190 111/171/191
f 92/160/28 91/165/30 111/171/191 112/166/192
f 93/161/26 92/160/28 112/166/192 113/167/193
f 94/58/24 93/64/26 113/68/193 114/65/194
f 95/51/22 94/58/24 114/65/194 115/59/195
f 96/43/20 95/51/22 115/59/195 116/52/196
f 97/38/18 96/43/20 116/52/196 117/44/197
f 98/39/16 97/38/18 117/44/197 118/45/198
f 99/47/14 98/39/16 118/45/198 119/55/199
f 100/145/12 99/151/14 119/155/199 120/152/200
f 101/140/10 100/145/12 120/152/200 121/146/201
f 102/135/8 101/140/10 121/146/201 122/141/202
f 83/136/6 102/135/8 122/141/202 103/142/183
f 104/9/184 103/15/183 23/22/203 22/16/204
f 105/10/185 104/9/184 22/16/204 21/17/205
f 106/18/186 105/10/185 21/17/205 40/23/206
f 107/24/187 106/18/186 40/23/206 39/28/207
f 108/29/188 107/24/187 39/28/207 38/33/208
f 109/34/189 108/29/188 38/33/208 37/35/209
f 110/177/190 109/180/189 37/182/209 36/181/210
f 111/171/191 110/177/190 36/181/210 35/178/211
f 112/166/192 111/171/191 35/178/211 34/172/212
f 113/167/193 112/166/192 34/172/212 33/173/213
f 114/65/194 113/68/193 33/70/213 32/69/214
f 115/59/195 114/65/194 32/69/214 31/66/215
f 116/52/196 115/59/195 31/66/215 30/60/216
f 117/44/197 116/52/196 30/60/216 29/53/217
f 118/45/198 117/44/197 29/53/217 28/54/218
f 119/55/199 118/45/198 28/54/218 27/61/219
f 120/152/200 119/155/199 27/157/219 26/156/220
f 121/146/201 120/152/200 26/156/220 25/153/221
f 122/141/202 121/146/201 25/153/221 24/147/222
f 103/142/183 122/141/202 24/147/222 23/148/203
